<svg class="home_blob" viewBox="0 0 200 200" xmlns="http://www.w3.org/2000/svg">
    <defs>
        <mask id="blobMask">
            <path fill="white" 
                  d="M61.9,-50C76.4,-31.1,81.7,-5.6,77.1,18.7C72.4,43.1,57.8,66.3,36.3,77.4C14.9,88.5,-13.4,87.5,-34.9,75.9C-56.5,64.2,-71.3,41.9,-76.1,18.1C-81,-5.8,-76,-31.2,-61.6,-49.9C-47.3,-68.7,-23.6,-80.9,0,-80.9C23.7,-80.9,47.3,-68.8,61.9,-50Z" 
                  transform="translate(100 100)" />
        </mask>
    </defs>

    <path d="M61.9,-50C76.4,-31.1,81.7,-5.6,77.1,18.7C72.4,43.1,57.8,66.3,36.3,77.4C14.9,88.5,-13.4,87.5,-34.9,75.9C-56.5,64.2,-71.3,41.9,-76.1,18.1C-81,-5.8,-76,-31.2,-61.6,-49.9C-47.3,-68.7,-23.6,-80.9,0,-80.9C23.7,-80.9,47.3,-68.8,61.9,-50Z" 
          transform="translate(100 100)" />

    <g mask="url(#blobMask)">
        <image 
            xlink:href="assets/img/fotopkl.jpeg" 
            width="165" 
            height="165"
            x="20" 
            y="20"
            preserveAspectRatio="xMidYMid slice" />
    </g>
</svg>